<?xml version="1.0" encoding="utf-8"?>
<!-- Generator: Adobe Illustrator 25.1.0, SVG Export Plug-In . SVG Version: 6.00 Build 0)  -->
<svg version="1.1" id="Layer_1" xmlns="http://www.w3.org/2000/svg" xmlns:xlink="http://www.w3.org/1999/xlink" x="0px" y="0px"
	 viewBox="0 0 720 720" style="enable-background:new 0 0 720 720;" xml:space="preserve">
<style type="text/css">
	.st0{fill:none;stroke:#001D3D;stroke-width:5;stroke-miterlimit:10;}
	.st1{fill:#001D3D;}
</style>
<g>
	<line class="st0" x1="402.6" y1="539.9" x2="719.8" y2="539.9"/>
	<line class="st0" x1="665.1" y1="324" x2="719.8" y2="324"/>
	<line class="st0" x1="0.2" y1="180.1" x2="349.6" y2="180.1"/>
	<line class="st0" x1="0.2" y1="216.1" x2="337.5" y2="216.1"/>
	<line class="st0" x1="356.2" y1="432" x2="719.8" y2="432"/>
	<line class="st0" x1="328.3" y1="432" x2="333.2" y2="432"/>
	<line class="st0" x1="363.5" y1="467.9" x2="719.8" y2="467.9"/>
	<line class="st0" x1="710.6" y1="216.1" x2="719.8" y2="216.1"/>
	<line class="st0" x1="0.2" y1="144.1" x2="361.7" y2="144.1"/>
	<line class="st0" x1="463.5" y1="396" x2="719.8" y2="396"/>
	<line class="st0" x1="408.7" y1="611.8" x2="719.8" y2="611.8"/>
	<line class="st0" x1="401.2" y1="647.8" x2="719.8" y2="647.8"/>
	<line class="st0" x1="385.7" y1="683.8" x2="719.8" y2="683.8"/>
	<line class="st0" x1="359.4" y1="719.8" x2="719.8" y2="719.8"/>
	<line class="st0" x1="0.2" y1="0.2" x2="534.4" y2="0.2"/>
	<line class="st0" x1="0.2" y1="36.2" x2="418.6" y2="36.2"/>
	<line class="st0" x1="0.2" y1="72.2" x2="385.9" y2="72.2"/>
	<line class="st0" x1="0.2" y1="108.2" x2="373.7" y2="108.2"/>
	<line class="st0" x1="570.8" y1="360" x2="719.8" y2="360"/>
	<line class="st0" x1="689" y1="288" x2="719.8" y2="288"/>
	<line class="st0" x1="409.1" y1="575.9" x2="719.8" y2="575.9"/>
	<line class="st0" x1="0.2" y1="252.1" x2="325.5" y2="252.1"/>
	<line class="st0" x1="185.1" y1="288" x2="313.4" y2="288"/>
	<line class="st0" x1="0.2" y1="288" x2="106.5" y2="288"/>
	<line class="st0" x1="220.9" y1="324" x2="301.4" y2="324"/>
	<line class="st0" x1="0.2" y1="324" x2="91.9" y2="324"/>
	<line class="st0" x1="256.7" y1="360" x2="289.3" y2="360"/>
	<line class="st0" x1="0.2" y1="360" x2="104.9" y2="360"/>
	<line class="st0" x1="292.5" y1="396" x2="293" y2="396"/>
	<line class="st0" x1="0.2" y1="396" x2="125.2" y2="396"/>
	<line class="st0" x1="0.2" y1="432" x2="114.8" y2="432"/>
	<line class="st0" x1="0.2" y1="467.9" x2="79.1" y2="467.9"/>
	<line class="st0" x1="0.2" y1="503.9" x2="54.4" y2="503.9"/>
	<line class="st0" x1="0.2" y1="539.9" x2="40.1" y2="539.9"/>
	<line class="st0" x1="0.2" y1="575.9" x2="33.5" y2="575.9"/>
	<line class="st0" x1="0.2" y1="611.8" x2="34" y2="611.8"/>
	<line class="st0" x1="0.2" y1="647.8" x2="41.4" y2="647.8"/>
	<line class="st0" x1="0.2" y1="683.8" x2="56.9" y2="683.8"/>
	<line class="st0" x1="0.2" y1="719.8" x2="83.2" y2="719.8"/>
	<line class="st0" x1="388.2" y1="503.9" x2="719.8" y2="503.9"/>
	<line class="st0" x1="699.8" y1="252.1" x2="719.8" y2="252.1"/>
</g>
<path class="st1" d="M359.4,719.8H83.2c-68.8-73.9-67-189.9,5.1-261.8c4.7-4.6,9.5-9,14.5-13.1c23-18.6,31.3-55.4,10.4-76.4
	l-5.7-5.7c-21-21.1-20.9-55.1,0.2-76.1s55.1-20.9,76.1,0.2l112,112.5L463.3,232c-3.3-6.9-5.1-14.5-5.1-22.6
	c0-28.9,23.4-52.3,52.3-52.3s52.3,23.4,52.3,52.3s-23.4,52.3-52.3,52.3c-8.1,0-15.7-1.9-22.6-5.1L320.5,424.1l34.3,34.5
	C426.6,530.6,428,646,359.4,719.8z"/>
</svg>
