<?xml version="1.0" encoding="utf-8"?>
<!-- Generator: Adobe Illustrator 25.1.0, SVG Export Plug-In . SVG Version: 6.00 Build 0)  -->
<svg version="1.1" id="Layer_1" xmlns="http://www.w3.org/2000/svg" xmlns:xlink="http://www.w3.org/1999/xlink" x="0px" y="0px"
	 viewBox="0 0 720 720" style="enable-background:new 0 0 720 720;" xml:space="preserve">
<style type="text/css">
	.st0{fill:none;stroke:#000000;stroke-linecap:round;stroke-linejoin:round;stroke-miterlimit:10;}
</style>
<g>
	<line class="st0" x1="0.48" y1="144.29" x2="361.67" y2="144.29"/>
	<line class="st0" x1="613.58" y1="345.62" x2="719.52" y2="345.62"/>
	<line class="st0" x1="701.76" y1="244.95" x2="719.52" y2="244.95"/>
	<line class="st0" x1="0.48" y1="158.67" x2="356.85" y2="158.67"/>
	<line class="st0" x1="0.48" y1="173.05" x2="352.03" y2="173.05"/>
	<line class="st0" x1="688.83" y1="288.1" x2="719.52" y2="288.1"/>
	<line class="st0" x1="683" y1="302.48" x2="719.52" y2="302.48"/>
	<line class="st0" x1="672.68" y1="316.86" x2="719.52" y2="316.86"/>
	<line class="st0" x1="653.8" y1="331.24" x2="719.52" y2="331.24"/>
	<line class="st0" x1="719.01" y1="187.43" x2="719.52" y2="187.43"/>
	<line class="st0" x1="714.7" y1="201.81" x2="719.52" y2="201.81"/>
	<line class="st0" x1="527.78" y1="374.38" x2="719.52" y2="374.38"/>
	<line class="st0" x1="484.88" y1="388.76" x2="719.52" y2="388.76"/>
	<line class="st0" x1="441.98" y1="403.14" x2="719.52" y2="403.14"/>
	<line class="st0" x1="399.08" y1="417.52" x2="719.52" y2="417.52"/>
	<line class="st0" x1="356.19" y1="431.9" x2="719.52" y2="431.9"/>
	<line class="st0" x1="328.35" y1="431.9" x2="333.22" y2="431.9"/>
	<line class="st0" x1="342.67" y1="446.28" x2="719.52" y2="446.28"/>
	<line class="st0" x1="356.96" y1="460.67" x2="719.52" y2="460.67"/>
	<line class="st0" x1="369.51" y1="475.05" x2="719.52" y2="475.05"/>
	<line class="st0" x1="379.79" y1="489.43" x2="719.52" y2="489.43"/>
	<line class="st0" x1="388.19" y1="503.81" x2="719.52" y2="503.81"/>
	<line class="st0" x1="710.38" y1="216.19" x2="719.52" y2="216.19"/>
	<line class="st0" x1="706.07" y1="230.57" x2="719.52" y2="230.57"/>
	<line class="st0" x1="404.47" y1="546.95" x2="719.52" y2="546.95"/>
	<line class="st0" x1="407.36" y1="561.33" x2="719.52" y2="561.33"/>
	<line class="st0" x1="409.11" y1="575.71" x2="719.52" y2="575.71"/>
	<line class="st0" x1="409.76" y1="590.09" x2="719.52" y2="590.09"/>
	<line class="st0" x1="409.31" y1="604.47" x2="719.52" y2="604.47"/>
	<line class="st0" x1="407.76" y1="618.85" x2="719.52" y2="618.85"/>
	<line class="st0" x1="405.08" y1="633.24" x2="719.52" y2="633.24"/>
	<line class="st0" x1="401.21" y1="647.62" x2="719.52" y2="647.62"/>
	<line class="st0" x1="396.07" y1="662" x2="719.52" y2="662"/>
	<line class="st0" x1="389.53" y1="676.38" x2="719.52" y2="676.38"/>
	<line class="st0" x1="381.44" y1="690.76" x2="719.52" y2="690.76"/>
	<line class="st0" x1="371.53" y1="705.14" x2="719.52" y2="705.14"/>
	<line class="st0" x1="359.43" y1="719.52" x2="719.52" y2="719.52"/>
	<line class="st0" x1="0.48" y1="0.48" x2="534.26" y2="0.48"/>
	<line class="st0" x1="0.48" y1="14.86" x2="486.29" y2="14.86"/>
	<line class="st0" x1="0.48" y1="29.24" x2="438.32" y2="29.24"/>
	<line class="st0" x1="0.48" y1="43.62" x2="407.41" y2="43.62"/>
	<line class="st0" x1="0.48" y1="58" x2="393.74" y2="58"/>
	<line class="st0" x1="0.48" y1="72.38" x2="385.9" y2="72.38"/>
	<line class="st0" x1="0.48" y1="86.76" x2="380.96" y2="86.76"/>
	<line class="st0" x1="0.48" y1="101.15" x2="376.14" y2="101.15"/>
	<line class="st0" x1="0.48" y1="115.53" x2="371.32" y2="115.53"/>
	<line class="st0" x1="0.48" y1="129.91" x2="366.5" y2="129.91"/>
	<line class="st0" x1="697.45" y1="259.33" x2="719.52" y2="259.33"/>
	<line class="st0" x1="693.14" y1="273.72" x2="719.52" y2="273.72"/>
	<line class="st0" x1="400.37" y1="532.57" x2="719.52" y2="532.57"/>
	<line class="st0" x1="0.48" y1="187.43" x2="347.2" y2="187.43"/>
	<line class="st0" x1="0.48" y1="201.81" x2="342.38" y2="201.81"/>
	<line class="st0" x1="0.48" y1="216.19" x2="337.56" y2="216.19"/>
	<line class="st0" x1="0.48" y1="230.57" x2="332.74" y2="230.57"/>
	<line class="st0" x1="0.48" y1="244.95" x2="327.91" y2="244.95"/>
	<line class="st0" x1="0.48" y1="259.33" x2="323.09" y2="259.33"/>
	<line class="st0" x1="162.58" y1="273.72" x2="318.27" y2="273.72"/>
	<line class="st0" x1="0.48" y1="273.72" x2="129.21" y2="273.72"/>
	<line class="st0" x1="185.18" y1="288.1" x2="313.45" y2="288.1"/>
	<line class="st0" x1="0.48" y1="288.1" x2="106.64" y2="288.1"/>
	<line class="st0" x1="199.5" y1="302.48" x2="308.62" y2="302.48"/>
	<line class="st0" x1="0.48" y1="302.48" x2="96.96" y2="302.48"/>
	<line class="st0" x1="213.82" y1="316.86" x2="303.8" y2="316.86"/>
	<line class="st0" x1="0.48" y1="316.86" x2="92.67" y2="316.86"/>
	<line class="st0" x1="228.13" y1="331.24" x2="298.98" y2="331.24"/>
	<line class="st0" x1="0.48" y1="331.24" x2="92.44" y2="331.24"/>
	<line class="st0" x1="242.45" y1="345.62" x2="294.16" y2="345.62"/>
	<line class="st0" x1="0.48" y1="345.62" x2="96.21" y2="345.62"/>
	<line class="st0" x1="256.77" y1="360" x2="289.33" y2="360"/>
	<line class="st0" x1="0.48" y1="360" x2="105.11" y2="360"/>
	<line class="st0" x1="271.08" y1="374.38" x2="286.17" y2="374.38"/>
	<line class="st0" x1="0.48" y1="374.38" x2="118.25" y2="374.38"/>
	<line class="st0" x1="285.4" y1="388.76" x2="288.91" y2="388.76"/>
	<line class="st0" x1="0.48" y1="388.76" x2="124.37" y2="388.76"/>
	<line class="st0" x1="0.48" y1="403.14" x2="125.27" y2="403.14"/>
	<line class="st0" x1="0.48" y1="417.52" x2="122.17" y2="417.52"/>
	<line class="st0" x1="0.48" y1="431.9" x2="114.92" y2="431.9"/>
	<line class="st0" x1="0.48" y1="446.28" x2="101.36" y2="446.28"/>
	<line class="st0" x1="0.48" y1="460.67" x2="85.85" y2="460.67"/>
	<line class="st0" x1="0.48" y1="475.05" x2="73.3" y2="475.05"/>
	<line class="st0" x1="0.48" y1="489.43" x2="63.03" y2="489.43"/>
	<line class="st0" x1="0.48" y1="503.81" x2="54.64" y2="503.81"/>
	<line class="st0" x1="0.48" y1="518.19" x2="47.85" y2="518.19"/>
	<line class="st0" x1="0.48" y1="532.57" x2="42.48" y2="532.57"/>
	<line class="st0" x1="0.48" y1="546.95" x2="38.39" y2="546.95"/>
	<line class="st0" x1="0.48" y1="561.33" x2="35.5" y2="561.33"/>
	<line class="st0" x1="0.48" y1="575.71" x2="33.75" y2="575.71"/>
	<line class="st0" x1="0.48" y1="590.09" x2="33.1" y2="590.09"/>
	<line class="st0" x1="0.48" y1="604.47" x2="33.55" y2="604.47"/>
	<line class="st0" x1="0.48" y1="618.85" x2="35.09" y2="618.85"/>
	<line class="st0" x1="0.48" y1="633.24" x2="37.77" y2="633.24"/>
	<line class="st0" x1="0.48" y1="647.62" x2="41.64" y2="647.62"/>
	<line class="st0" x1="0.48" y1="662" x2="46.77" y2="662"/>
	<line class="st0" x1="0.48" y1="676.38" x2="53.29" y2="676.38"/>
	<line class="st0" x1="0.48" y1="690.76" x2="61.39" y2="690.76"/>
	<line class="st0" x1="0.48" y1="705.14" x2="71.3" y2="705.14"/>
	<line class="st0" x1="0.48" y1="719.52" x2="83.42" y2="719.52"/>
	<line class="st0" x1="394.99" y1="518.19" x2="719.52" y2="518.19"/>
	<line class="st0" x1="570.68" y1="360" x2="719.52" y2="360"/>
	<path class="st0" d="M359.43,719.52h-276c-68.79-73.84-67.02-189.77,5.11-261.58c4.65-4.63,9.53-9.02,14.53-13.05
		c22.99-18.62,31.27-55.34,10.39-76.31l-5.69-5.72c-21-21.09-20.92-55.1,0.17-76.09s55.1-20.92,76.09,0.17l111.9,112.4
		l167.33-167.22c-3.27-6.86-5.12-14.49-5.12-22.55c0-28.87,23.42-52.29,52.29-52.29s52.29,23.42,52.29,52.29
		c0,28.87-23.42,52.29-52.29,52.29c-8.06,0-15.69-1.85-22.55-5.12L320.55,424.07l34.31,34.46
		C426.54,530.53,428,645.76,359.43,719.52z"/>
	<path d="M359.43,719.52h-276c-68.79-73.84-67.02-189.77,5.11-261.58c4.65-4.63,9.53-9.02,14.53-13.05
		c22.99-18.62,31.27-55.34,10.39-76.31l-5.69-5.72c-21-21.09-20.92-55.1,0.17-76.09s55.1-20.92,76.09,0.17l111.9,112.4
		l167.33-167.22c-3.27-6.86-5.12-14.49-5.12-22.55c0-28.87,23.42-52.29,52.29-52.29s52.29,23.42,52.29,52.29
		c0,28.87-23.42,52.29-52.29,52.29c-8.06,0-15.69-1.85-22.55-5.12L320.55,424.07l34.31,34.46
		C426.54,530.53,428,645.76,359.43,719.52z"/>
</g>
</svg>
